<?xml version="1.0" encoding="UTF-8"?>
<svg xmlns="http://www.w3.org/2000/svg" xmlns:xlink="http://www.w3.org/1999/xlink" xmlns:svgjs="http://svgjs.com/svgjs" version="1.1" width="512" height="512" x="0" y="0" viewBox="0 0 480 480" style="enable-background:new 0 0 512 512" xml:space="preserve" class="">
  <g>
<g xmlns="http://www.w3.org/2000/svg">
	<g>
		<path d="M286.565,259.388c-1.422-2.017-3.696-3.265-6.162-3.38l-24.945-1.176l-7.789-25.195c-1.304-4.22-5.781-6.584-10.001-5.28    c-2.524,0.78-4.501,2.756-5.28,5.28l-7.789,25.195l-24.945,1.176c-4.413,0.207-7.822,3.953-7.615,8.365    c0.116,2.466,1.363,4.739,3.38,6.162v0l19.969,14.094l-7.719,25.012c-1.306,4.219,1.056,8.698,5.276,10.004    c2.475,0.766,5.167,0.285,7.224-1.289l19.859-15.176l19.859,15.176c3.507,2.684,8.527,2.017,11.211-1.49    c1.574-2.057,2.055-4.75,1.289-7.224l-7.719-25.012l19.969-14.094C288.248,267.989,289.111,262.999,286.565,259.388z     M250.7,274.906c-2.833,1.994-4.057,5.586-3.031,8.895l2.047,6.648l-4.828-3.691c-2.869-2.193-6.85-2.193-9.719,0l-4.828,3.691    l2.047-6.648c1.026-3.308-0.198-6.901-3.031-8.895l-5.68-4.012l7.282-0.344c3.366-0.158,6.271-2.409,7.266-5.629l1.805-5.832    l1.805,5.832c0.994,3.22,3.9,5.471,7.266,5.629l7.281,0.344L250.7,274.906z" fill="#111d5c" data-original="#000000" style="" class=""/>
	</g>
</g>
<g xmlns="http://www.w3.org/2000/svg">
	<g>
		<path d="M307.04,75.139l27.496-38.491c2.569-3.593,1.738-8.587-1.854-11.156c-1.675-1.198-3.748-1.703-5.786-1.411l-52.039,7.434    L245.684,2.344c-3.122-3.124-8.186-3.125-11.309-0.003c-0.001,0.001-0.002,0.002-0.003,0.003L205.2,31.515l-52.039-7.434    c-4.372-0.627-8.424,2.408-9.051,6.78c-0.292,2.038,0.213,4.111,1.411,5.786l27.496,38.491    C64.277,112.133,6.117,230.273,43.11,339.012c28.683,84.31,107.862,141,196.918,140.988c114.859,0.016,207.984-93.084,208-207.943    C448.04,183.001,391.35,103.822,307.04,75.139z M389.748,152c23.934,29.735,38.41,65.959,41.562,104h-31.282v-56    c0.001-4.417-3.579-7.999-7.996-8c-0.001,0-0.003,0-0.004,0h-77.955c-2.028-13.464-4.744-26.814-8.137-40H389.748z M96.028,336    V208h288v128H96.028z M297.896,352c-2.113,13.481-4.968,26.834-8.553,40h-98.629c-3.585-13.166-6.44-26.519-8.553-40H297.896z     M289.343,152c3.585,13.166,6.44,26.519,8.553,40H182.161c2.113-13.481,4.968-26.834,8.553-40H289.343z M195.718,136    c11.939-34.641,27.978-56,44.311-56c16.333,0,32.371,21.359,44.311,56H195.718z M375.414,136H301.28    c-5.475-19.122-14.509-37.04-26.627-52.812C312.809,90.191,347.944,108.606,375.414,136z M169.403,42.562l37.492,5.355    c2.495,0.375,5.018-0.466,6.789-2.262l26.344-26.344l26.344,26.344c1.773,1.793,4.295,2.633,6.789,2.262l37.492-5.355    l-19.815,27.74c-33.352-8.403-68.268-8.403-101.62,0L169.403,42.562z M205.404,83.187c-12.118,15.773-21.152,33.69-26.627,52.812    h-74.134C132.113,108.606,167.247,90.191,205.404,83.187z M90.308,152h83.812c-3.393,13.186-6.109,26.536-8.137,40H88.028    c-4.417-0.001-7.999,3.579-8,7.996c0,0.001,0,0.003,0,0.004v56H48.747C51.898,217.959,66.374,181.735,90.308,152z M90.308,392    c-27.391-33.994-42.312-76.344-42.28-120h32v72c-0.001,4.417,3.579,7.999,7.996,8c0.001,0,0.003,0,0.004,0h77.955    c2.028,13.463,4.743,26.814,8.137,40H90.308z M104.643,408h74.134c5.475,19.122,14.509,37.04,26.627,52.812    C167.247,453.808,132.113,435.393,104.643,408z M240.028,464c-16.333,0-32.371-21.359-44.311-56h88.621    C272.399,442.64,256.361,464,240.028,464z M274.652,460.812c12.118-15.773,21.152-33.69,26.627-52.812h74.134    C347.944,435.393,312.809,453.808,274.652,460.812z M305.937,392c3.393-13.186,6.109-26.537,8.137-40h77.955    c4.417,0.001,7.999-3.579,8-7.996c0-0.001,0-0.003,0-0.004v-72h32c0.032,43.656-14.889,86.006-42.28,120H305.937z" fill="#111d5c" data-original="#000000" style="" class=""/>
	</g>
</g>















</g>
</svg>
